# xmcd CD database file
#
# Track frame offsets:
#	150
#	15765
#	31678
#	51392
#	69460
#	96571
#	129021
#	157320
#	194543
#
# Disc length: 3022 seconds
#
# Revision: 0
# Processed by: cddbd v1.5.2PL0 Copyright (c) Steve Scherf et al.
# Submitted via: CDex 1.51
#
DISCID=720bcc09
DTITLE=רון שובל - עובר בשנים (דיסק 2)
DYEAR=2000
DGENRE=מזרחי
TTITLE0=ביילמוס
TTITLE1=כשאת רוקדת
TTITLE2=שיר למזכרת
TTITLE3=לפעמים
TTITLE4=מחרוזת: פגישה/ כסאח
TTITLE5=מחרוזת: חלון לים/ הומיה
TTITLE6=מחרוזת: כשתבוא/ לבכות לך
TTITLE7=מחרוזת: סורו ממני/ חסידה צחורה/ הכוכב
TTITLE8=מחרוזת תימנית: אשאל אלוהי/ סעי יונה/ ספרי תמה
EXTD=YEAR: 2000
EXTT0=
EXTT1=
EXTT2=
EXTT3=
EXTT4=
EXTT5=
EXTT6=
EXTT7=
EXTT8=
PLAYORDER=
